<svg xmlns="http://www.w3.org/2000/svg" xmlns:xlink="http://www.w3.org/1999/xlink" width="1000" zoomAndPan="magnify" viewBox="0 0 750 749.999995" height="1000" preserveAspectRatio="xMidYMid meet" version="1.0"><defs><clipPath id="853db5e913"><path d="M 142.621094 40.039062 L 375 40.039062 L 375 576 L 142.621094 576 Z M 142.621094 40.039062 " clip-rule="nonzero"/></clipPath><clipPath id="e35b158f44"><path d="M 375 174 L 607.621094 174 L 607.621094 709.789062 L 375 709.789062 Z M 375 174 " clip-rule="nonzero"/></clipPath></defs><g clip-path="url(#853db5e913)"><path fill="#8853ea" d="M 374.816406 174.003906 L 374.964844 173.902344 L 374.964844 40.113281 L 374.816406 40.039062 L 258.871094 106.921875 L 258.871094 107.121094 L 258.722656 107.019531 L 142.777344 173.902344 L 142.777344 441.976562 L 258.699219 508.859375 L 258.871094 508.761719 L 258.871094 508.957031 L 374.816406 575.839844 L 374.964844 575.769531 L 374.964844 441.976562 L 374.816406 441.878906 L 258.871094 374.996094 L 258.722656 374.921875 L 258.871094 374.820312 L 258.871094 241.058594 L 258.722656 240.960938 L 258.871094 240.882812 Z M 374.816406 174.003906 " fill-opacity="1" fill-rule="nonzero"/></g><g clip-path="url(#e35b158f44)"><path fill="#57f0e3" d="M 491.523438 240.984375 L 491.375 241.082031 L 491.375 240.882812 L 375.429688 174.003906 L 375.28125 174.074219 L 375.28125 307.863281 L 375.429688 307.964844 L 491.375 374.847656 L 491.523438 374.921875 L 491.375 375.019531 L 491.375 508.785156 L 491.523438 508.882812 L 491.375 508.957031 L 375.429688 575.839844 L 375.28125 575.9375 L 375.28125 709.726562 L 375.429688 709.800781 L 491.375 642.921875 L 491.375 642.722656 L 491.546875 642.820312 L 607.46875 575.9375 L 607.46875 307.863281 Z M 491.523438 240.984375 " fill-opacity="1" fill-rule="nonzero"/></g></svg>