<svg xmlns="http://www.w3.org/2000/svg" xmlns:xlink="http://www.w3.org/1999/xlink" width="1000" zoomAndPan="magnify" viewBox="0 0 750 749.999995" height="1000" preserveAspectRatio="xMidYMid meet" version="1.0"><defs><clipPath id="046ca9a903"><path d="M 24.957031 29 L 580 29 L 580 443 L 24.957031 443 Z M 24.957031 29 " clip-rule="nonzero"/></clipPath><clipPath id="fb6bb672e0"><path d="M 318 24.957031 L 693 24.957031 L 693 228 L 318 228 Z M 318 24.957031 " clip-rule="nonzero"/></clipPath><clipPath id="2e936e29dd"><path d="M 169.046875 307 L 724.707031 307 L 724.707031 720.566406 L 169.046875 720.566406 Z M 169.046875 307 " clip-rule="nonzero"/></clipPath><clipPath id="bffe600e35"><path d="M 57 522 L 432 522 L 432 724.707031 L 57 724.707031 Z M 57 522 " clip-rule="nonzero"/></clipPath></defs><g clip-path="url(#046ca9a903)"><path fill="#8853ea" d="M 318.648438 29.457031 C 165.648438 54.171875 45.886719 178.089844 27.445312 333.109375 C 27.433594 333.207031 27.421875 333.304688 27.414062 333.398438 C 27.027344 336.679688 26.683594 339.972656 26.390625 343.285156 C 26.320312 344.074219 26.242188 344.863281 26.179688 345.652344 C 26.0625 347.078125 25.953125 348.507812 25.847656 349.9375 C 25.738281 351.5 25.640625 353.074219 25.550781 354.652344 C 25.480469 355.914062 25.410156 357.183594 25.351562 358.445312 C 25.253906 360.488281 25.175781 362.539062 25.117188 364.589844 C 25.097656 365.386719 25.074219 366.179688 25.058594 366.976562 C 24.996094 369.605469 24.957031 372.230469 24.957031 374.863281 C 24.957031 377.761719 24.996094 380.660156 25.058594 383.546875 C 25.558594 403.738281 27.777344 423.507812 31.554688 442.710938 L 384.398438 442.710938 L 122.96875 358.03125 C 131.632812 226.445312 241.089844 122.394531 374.863281 122.394531 C 459.273438 122.394531 533.988281 163.820312 579.832031 227.441406 C 531.769531 124.148438 434.785156 48.21875 318.648438 29.457031 " fill-opacity="1" fill-rule="nonzero"/></g><g clip-path="url(#fb6bb672e0)"><path fill="#b187ff" d="M 692.265625 227.441406 C 636.636719 107.863281 515.441406 24.949219 374.863281 24.949219 C 355.726562 24.949219 336.953125 26.503906 318.648438 29.457031 C 434.785156 48.21875 531.769531 124.148438 579.832031 227.441406 L 692.265625 227.441406 " fill-opacity="1" fill-rule="nonzero"/></g><g clip-path="url(#2e936e29dd)"><path fill="#57f0e3" d="M 431.085938 720.269531 C 584.082031 695.554688 703.847656 571.636719 722.285156 416.617188 C 722.300781 416.519531 722.304688 416.425781 722.320312 416.328125 C 722.707031 413.046875 723.042969 409.753906 723.339844 406.441406 C 723.410156 405.652344 723.488281 404.863281 723.554688 404.074219 C 723.671875 402.644531 723.78125 401.21875 723.882812 399.789062 C 723.996094 398.21875 724.089844 396.644531 724.183594 395.074219 C 724.253906 393.8125 724.324219 392.542969 724.382812 391.28125 C 724.472656 389.238281 724.550781 387.1875 724.617188 385.136719 C 724.636719 384.339844 724.660156 383.546875 724.671875 382.75 C 724.730469 380.125 724.777344 377.496094 724.777344 374.863281 C 724.777344 371.957031 724.738281 369.066406 724.667969 366.179688 C 724.175781 345.988281 721.949219 326.21875 718.179688 307.011719 L 365.328125 307.011719 L 626.761719 391.695312 C 618.101562 523.28125 508.640625 627.332031 374.863281 627.332031 C 290.460938 627.332031 215.742188 585.90625 169.902344 522.285156 C 217.964844 625.578125 314.949219 701.507812 431.085938 720.269531 " fill-opacity="1" fill-rule="nonzero"/></g><g clip-path="url(#bffe600e35)"><path fill="#00ffe9" d="M 57.460938 522.277344 C 113.097656 641.863281 234.285156 724.769531 374.863281 724.769531 C 394.007812 724.769531 412.78125 723.222656 431.085938 720.269531 C 314.949219 701.507812 217.964844 625.578125 169.902344 522.285156 C 169.902344 522.285156 169.902344 522.277344 169.902344 522.277344 L 57.460938 522.277344 " fill-opacity="1" fill-rule="nonzero"/></g></svg>